# xmcd
#
# Track frame offsets:
#	225
#	33366
#	67482
#	86735
#	119500
#	146207
#	186224
#	204029
#
# Disc length: 3158 seconds
#
# Revision: 0
# Processed by: cddbd v1.5.1PL0 Copyright (c) Steve Scherf et al.
# Submitted via: dBpowerAMP V4.0
#
DISCID=7a0c5308
DTITLE=0 - Gh
DYEAR=1900
DGENRE=
TTITLE0=Medley 1
TTITLE1=Medley 2
TTITLE2=Bless The Lord
TTITLE3=Medley 3
TTITLE4=Medley 4
TTITLE5=Medley 5
TTITLE6=It's All Right
TTITLE7=Medley 6
EXTD=Ghana Praise,ephraim
EXTT0=
EXTT1=
EXTT2=
EXTT3=
EXTT4=
EXTT5=
EXTT6=
EXTT7=
PLAYORDER=
